<svg xmlns="http://www.w3.org/2000/svg" viewBox="0 0 32 32" width="32" height="32">
  <!-- Background circle -->
  <circle cx="16" cy="16" r="15" fill="#ffa500" stroke="#ff6b6b" stroke-width="2"/>
  
  <!-- Game controller elements -->
  <!-- Main controller body -->
  <rect x="8" y="12" width="16" height="8" rx="4" fill="#4ecdc4" stroke="#333" stroke-width="1"/>
  
  <!-- Left button -->
  <circle cx="11" cy="16" r="2" fill="#ff6b6b"/>
  
  <!-- Right button -->
  <circle cx="21" cy="16" r="2" fill="#ff6b6b"/>
  
  <!-- Center button -->
  <circle cx="16" cy="16" r="1.5" fill="#fff"/>
  
  <!-- D-pad -->
  <rect x="13" y="14" width="6" height="4" fill="#333"/>
  <rect x="14.5" y="12.5" width="3" height="7" fill="#333"/>
  
  <!-- Decorative elements -->
  <!-- Small stars -->
  <polygon points="6,8 7,10 9,10 7.5,11.5 8,14 6,12.5 4,14 4.5,11.5 3,10 5,10" fill="#fff"/>
  <polygon points="26,8 27,10 29,10 27.5,11.5 28,14 26,12.5 24,14 24.5,11.5 23,10 25,10" fill="#fff"/>
  
  <!-- Small circles for decoration -->
  <circle cx="6" cy="24" r="1.5" fill="#4ecdc4"/>
  <circle cx="26" cy="24" r="1.5" fill="#4ecdc4"/>
  <circle cx="16" cy="26" r="1" fill="#ff6b6b"/>
</svg> 